<?xml version="1.0" standalone="no"?><!DOCTYPE svg PUBLIC "-//W3C//DTD SVG 1.1//EN" "http://www.w3.org/Graphics/SVG/1.1/DTD/svg11.dtd"><svg t="1645939119349" class="icon" viewBox="0 0 1024 1024" version="1.1" xmlns="http://www.w3.org/2000/svg" p-id="7309" xmlns:xlink="http://www.w3.org/1999/xlink" width="200" height="200"><defs><style type="text/css"></style></defs><path d="M513.11860988 688.1708862c-97.2377057 0-176.35393147-79.11622572-176.35393146-176.35393147 0-4.35240933 0.10169181-8.66414193 0.81353445-12.9962129 2.15586629-13.09790474 14.50125164-21.84340009 27.6398331-19.80956396 13.09790474 2.17620466 21.96543027 14.54192835 19.80956397 27.6398331-0.28473707 1.72876071-0.18304527 3.45752143-0.18304526 5.18628214 0 70.71648249 57.53722432 128.27404519 128.2740452 128.27404519 1.66774563 0 3.35582963 0.10169181 5.06425199-0.16270691 13.03688962-2.17620466 25.50430514 6.56929072 27.7415249 19.66719544 2.23721977 13.07756639-6.56929072 25.50430514-19.66719545 27.74152492-5.02357525 0.81353444-9.51835312 0.81353444-13.13858144 0.81353445zM664.96481588 544.70408509c-1.44402366 0-2.88804732-0.12203018-4.35240934-0.38642887-13.05722799-2.37958829-21.72136996-14.90801888-19.32144331-27.96524689 0.22372196-1.42368531 0.12203018-2.96940074 0.12203018-4.51511622 0-70.71648249-57.53722432-128.27404519-128.27404516-128.27404516-1.66774563 0-3.15244598-0.10169181-4.82019166 0.16270686-13.03688962 2.31857319-25.50430514-6.54895237-27.72118654-19.66719542-2.23721977-13.09790474 6.56929072-25.50430514 19.66719544-27.7415249 5.04391362-0.85421118 9.3759846-0.85421118 12.87418276-0.85421118 97.2377057 0 176.35393147 79.11622572 176.35393145 176.35393142 0 3.66090506 0 8.23703635-0.89488791 13.15891983a24.08061987 24.08061987 0 0 1-23.63317591 19.72821053z" fill="#000000" p-id="7310"></path><path d="M789.69998615 669.45959373c-6.14218515 0-12.30470862-2.33891155-17.00287011-7.03707303-9.39632297-9.39632297-9.39632297-24.60941725 0-33.98540184 32.90746873-32.90746873 61.46252805-72.07915269 84.95333545-116.62016413-76.75697581-145.58199069-204.78696065-232.0810416-344.53184161-232.08104159-31.19904635 0-62.2760625 4.37274771-92.41751407 12.97587454-12.77249093 3.59988997-26.07377926-3.74225849-29.714346-16.5147494-3.64056668-12.77249093 3.74225849-26.07377926 16.51474946-29.71434598 34.43284581-9.82342853 69.9639631-14.82666544 105.61711061-14.82666545 161.77132635 0 308.71598726 100.71556551 393.05917185 269.42227311a24.08061987 24.08061987 0 0 1 0 21.49764798c-26.82629866 53.61192057-60.30324146 100.67488881-99.47492547 139.84657276a23.942319 23.942319 0 0 1-17.00287011 7.03707303zM513.11860988 791.97788262c-161.46625094 0-308.30922003-100.71556551-392.79477318-269.40193468-3.39650635-6.79301269-3.39650635-14.76565036 0.02033836-21.5586631 26.86697537-53.44921369 60.20154963-100.53252026 99.08849662-139.96860295 9.3149695-9.43699967 24.54840219-9.55902983 34.0057402-0.22372196 9.43699967 9.3149695 9.53869151 24.54840219 0.223722 33.98540187-32.72442346 33.17186737-61.21846772 72.48591993-84.79062859 117.00659293 76.85866762 145.56165235 204.78696065 232.0810416 344.26744296 232.08104165 31.28039977 0 62.56079958-4.37274771 92.96664982-12.99621295 12.77249093-3.53887488 26.07377926 3.80327357 29.69400759 16.57576455 3.62022832 12.77249093-3.80327357 26.05344089-16.57576451 29.69400757-34.69724451 9.82342853-70.3910687 14.80632707-106.10523127 14.80632707zM805.86898346 828.44456461c-6.14218515 0-12.30470862-2.33891155-17.00287012-7.03707307L203.58908818 236.13046635c-9.39632297-9.39632297-9.39632297-24.60941725 0-33.98540186s24.60941725-9.39632297 33.98540186 0l585.27702516 585.27702522c9.39632297 9.39632297 9.39632297 24.60941725 0 33.98540183a23.8975746 23.8975746 0 0 1-16.98253174 7.03707307z" fill="#000000" p-id="7311"></path></svg>